<svg width="370" height="423" viewBox="0 0 370 423" fill="none" xmlns="http://www.w3.org/2000/svg">
<path d="M56.7031 129.911C55.5538 132.523 54.287 135.344 53.1769 138.099C52.0668 140.855 50.9175 143.689 49.9119 146.51C47.8486 152.009 46.1942 157.654 44.9622 163.397L44.5834 165.486L44.4528 166.27C44.4528 166.492 44.4528 166.779 44.3745 167.04C44.3248 168.312 44.351 169.585 44.4528 170.854C44.701 173.61 45.145 176.561 45.7588 179.513C46.8559 185.429 48.2533 191.528 49.6768 197.535L42.9771 200.147C39.8539 194.454 37.1942 188.519 35.0235 182.399C33.8799 179.214 32.9549 175.954 32.2548 172.643C31.8626 170.811 31.618 168.951 31.5234 167.08V165.499C31.5234 164.938 31.5234 164.311 31.6149 163.945L31.8761 161.333C32.2663 157.969 32.8638 154.633 33.6653 151.342C34.3966 148.077 35.337 144.904 36.2773 141.769C37.2176 138.635 38.393 135.553 39.6337 132.523C40.2475 131.008 40.9397 129.506 41.5405 128.004C42.1412 126.502 42.8465 125.066 43.6823 123.459L56.7031 129.911Z" fill="#E1B9B2"/>
<path d="M49.324 195.772L54.4174 200.748L43.3034 205.972C43.3034 205.972 40.613 201.258 42.4806 197L49.324 195.772Z" fill="#E1B9B2"/>
<path d="M58.5313 208.153L49.1412 211.993L43.3164 205.92L54.4174 200.748L58.5313 208.153Z" fill="#E1B9B2"/>
<path opacity="0.4" d="M248.751 202.799C230.272 200.724 212.823 193.217 198.61 181.227C184.397 169.237 174.058 153.302 168.9 135.437C163.742 117.572 163.997 98.5787 169.632 80.8583C175.267 63.1379 186.029 47.486 200.559 35.8813C215.088 24.2766 232.731 17.2401 251.259 15.6613C269.787 14.0826 288.366 18.0326 304.65 27.0118C320.933 35.9911 334.188 49.5965 342.74 66.108C351.292 82.6196 354.756 101.296 352.695 119.776C351.326 132.054 347.55 143.943 341.584 154.761C335.619 165.579 327.579 175.116 317.926 182.826C308.273 190.537 297.195 196.269 285.326 199.696C273.456 203.123 261.028 204.177 248.751 202.799Z" fill="#FAFAFA"/>
<path opacity="0.4" d="M317.159 35.265L174.152 149.527C173.551 148.221 172.963 146.915 172.415 145.609C168.829 137.081 166.536 128.066 165.61 118.862L289.132 20.1676C299.273 23.5504 308.754 28.6578 317.159 35.265Z" fill="#FAFAFA"/>
<path opacity="0.4" d="M350.161 85.324L215.709 192.742C202.935 186.084 191.866 176.575 183.359 164.951L330.166 47.6459C339.63 58.5078 346.47 71.3988 350.161 85.324Z" fill="#FAFAFA"/>
<path d="M153.386 73.4132L152.146 72.9953C154.294 66.6547 156.995 60.5148 160.217 54.646L161.353 55.2729C158.174 61.076 155.508 67.1459 153.386 73.4132ZM169.241 42.9312L168.183 42.1607C178.916 27.6482 192.963 15.9119 209.152 7.9304L209.74 9.1058C193.734 17.0049 179.849 28.6158 169.241 42.9704V42.9312ZM312.366 10.895C308.098 8.60592 303.683 6.60333 299.149 4.90048L299.619 3.67284C304.197 5.41563 308.656 7.45739 312.966 9.78492L312.366 10.895Z" fill="#8DE4FF"/>
<path opacity="0.3" d="M153.386 73.4132L152.146 72.9953C154.294 66.6547 156.995 60.5148 160.217 54.646L161.353 55.2729C158.174 61.076 155.508 67.1459 153.386 73.4132ZM169.241 42.9312L168.183 42.1607C178.916 27.6482 192.963 15.9119 209.152 7.9304L209.74 9.1058C193.734 17.0049 179.849 28.6158 169.241 42.9704V42.9312ZM312.366 10.895C308.098 8.60592 303.683 6.60333 299.149 4.90048L299.619 3.67284C304.197 5.41563 308.656 7.45739 312.966 9.78492L312.366 10.895Z" fill="#03C0FC"/>
<path d="M356.443 61.3197C344.35 36.2384 323.069 16.7725 297.012 6.95755C270.954 -2.85742 242.119 -2.26872 216.484 8.60159C190.849 19.4719 170.381 39.7901 159.321 65.3441C148.262 90.8981 147.46 119.728 157.082 145.857C148.358 148.913 139.739 152.191 131.171 155.574C118.816 160.476 106.575 165.595 94.4465 170.932C82.3268 176.3 70.2594 181.772 58.3095 187.492C52.315 190.3 46.3988 193.265 40.4304 196.138C37.3255 197.472 34.5124 199.402 32.1503 201.819C30.8721 203.158 29.7464 204.634 28.7939 206.22C27.6317 208.097 26.7516 210.134 26.1819 212.267C25.1992 216.11 25.6242 220.178 27.38 223.735C29.1358 227.293 32.1065 230.104 35.7549 231.661C37.7809 232.511 39.9184 233.065 42.1021 233.307C43.9463 233.516 45.8083 233.516 47.6525 233.307C51.0041 232.9 54.2432 231.84 57.1863 230.185C63.1025 227.195 69.0579 224.308 74.9349 221.239C86.6889 215.245 98.4429 208.989 110.053 202.642C121.664 196.295 133.287 189.647 144.623 182.83C152.459 178.089 160.373 173.244 168.131 168.177C183.028 191.693 206.401 208.577 233.407 215.331C260.413 222.084 288.982 218.188 313.194 204.451C337.407 190.714 355.406 168.188 363.462 141.541C371.519 114.895 369.015 86.1703 356.469 61.3197H356.443ZM297.072 186.082C281.895 193.573 264.837 196.396 248.055 194.194C231.273 191.991 215.522 184.862 202.791 173.707C190.061 162.553 180.925 147.874 176.536 131.527C172.148 115.18 172.706 97.8991 178.139 81.869C183.572 65.839 193.636 51.7798 207.058 41.4692C220.481 31.1586 236.66 25.0596 253.549 23.9435C270.438 22.8273 287.278 26.7441 301.941 35.1986C316.604 43.653 328.431 56.2655 335.926 71.4412C340.904 81.5195 343.847 92.4797 344.588 103.696C345.329 114.912 343.854 126.164 340.246 136.81C336.638 147.455 330.968 157.286 323.56 165.74C316.153 174.195 307.152 181.107 297.072 186.082Z" fill="#8DE4FF"/>
<path opacity="0.3" d="M356.443 61.3197C344.35 36.2384 323.069 16.7725 297.012 6.95755C270  .954 -2.85742 242.119 -2.26872 216.484 8.60159C190.849 19.4719 170.381 39.7901 159.321 65.3441C148.262 90.8981 147.46 119.728 157.082 145.857C148.358 148.913 139.739 152.191 131.171 155.574C118.816 160.476 106.575 165.595 94.4465 170.932C82.3268 176.3 70.2594 181.772 58.3095 187.492C52.315 190.3 46.3988 193.265 40.4304 196.138C37.3255 197.472 34.5124 199.402 32.1503 201.819C30.8721 203.158 29.7464 204.634 28.7939 206.22C27.6317 208.097 26.7516 210.134 26.1819 212.267C25.1992 216.11 25.6242 220.178 27.38 223.735C29.1358 227.293 32.1065 230.104 35.7549 231.661C37.7809 232.511 39.9184 233.065 42.1021 233.307C43.9463 233.516 45.8083 233.516 47.6525 233.307C51.0041 232.9 54.2432 231.84 57.1863 230.185C63.1025 227.195 69.0579 224.308 74.9349 221.239C86.6889 215.245 98.4429 208.989 110.053 202.642C121.664 196.295 133.287 189.647 144.623 182.83C152.459 178.089 160.373 173.244 168.131 168.177C183.028 191.693 206.401 208.577 233.407 215.331C260.413 222.084 288.982 218.188 313.194 204.451C337.407 190.714 355.406 168.188 363.462 141.541C371.519 114.895 369.015 86.1703 356.469 61.3197H356.443ZM297.072 186.082C281.895 193.573 264.837 196.396 248.055 194.194C231.273 191.991 215.522 184.862 202.791 173.707C190.061 162.553 180.925 147.874 176.536 131.527C172.148 115.18 172.706 97.8991 178.139 81.869C183.572 65.839 193.636 51.7798 207.058 41.4692C220.481 31.1586 236.66 25.0596 253.549 23.9435C270.438 22.8273 287.278 26.7441 301.941 35.1986C316.604 43.653 328.431 56.2655 335.926 71.4412C340.904 81.5195 343.847 92.4797 344.588 103.696C345.329 114.912 343.854 126.164 340.246 136.81C336.638 147.455 330.968 157.286 323.56 165.74C316.153 174.195 307.152 181.107 297.072 186.082Z" fill="#03C0FC"/>
<path d="M92.8008 83.2735C92.8008 84.0441 93.2056 84.6709 93.715 84.6709C94.2243 84.6709 94.6292 84.0441 94.6292 83.2735C94.6292 82.503 94.2243 81.8761 93.715 81.8761C93.2056 81.8761 92.8008 82.5552 92.8008 83.2735Z" fill="#263238"/>
<path d="M93.1665 84.671C94.0909 87.0362 95.3344 89.264 96.8625 91.2924C96.3342 91.6703 95.7296 91.9281 95.0911 92.0477C94.4527 92.1673 93.7958 92.1457 93.1665 91.9846V84.671Z" fill="#DE5753"/>
<path d="M90.0973 78.9768C90.0245 78.9768 89.9526 78.9604 89.887 78.9287C89.8214 78.8971 89.7639 78.851 89.7186 78.794C89.6505 78.6943 89.6234 78.5722 89.6429 78.4531C89.6623 78.334 89.7268 78.2269 89.8231 78.154C90.3982 77.7178 91.0703 77.4271 91.7821 77.3066C92.4938 77.186 93.2241 77.2393 93.9109 77.4618C93.9725 77.4787 94.03 77.5082 94.0795 77.5486C94.1291 77.589 94.1696 77.6393 94.1985 77.6963C94.2274 77.7534 94.244 77.8158 94.2472 77.8796C94.2505 77.9435 94.2403 78.0073 94.2173 78.067C94.1944 78.1266 94.1592 78.1808 94.114 78.226C94.0688 78.2712 94.0146 78.3065 93.955 78.3294C93.8953 78.3524 93.8315 78.3626 93.7677 78.3594C93.7038 78.3562 93.6414 78.3396 93.5844 78.3107C93.0389 78.1434 92.4612 78.1095 91.8999 78.2118C91.3385 78.314 90.81 78.5495 90.3585 78.8984C90.2811 78.9498 90.1902 78.9771 90.0973 78.9768Z" fill="#263238"/>
<path d="M66.4199 89.0852C67.7259 96.0985 69.1625 108.963 64.252 113.651C64.252 113.651 66.1718 120.769 79.2187 120.769C93.5847 120.769 86.0621 113.651 86.0621 113.651C78.2261 111.77 78.4482 105.972 79.8064 100.513L66.4199 89.0852Z" fill="#E1B9B2"/>
<path d="M58.3879 117.347C59.9421 114.931 57.3301 109.067 57.3301 109.067C57.3301 109.067 80.4202 103.255 89.8625 112.175C91.8215 114.017 89.6536 116.733 89.6536 116.733L58.3879 117.347Z" fill="#8DE4FF"/>
<path opacity="0.1" d="M58.3879 117.347C59.9421 114.931 57.3301 109.067 57.3301 109.067C57.3301 109.067 80.4202 103.255 89.8625 112.175C91.8215 114.017 89.6536 116.733 89.6536 116.733L58.3879 117.347Z" fill="#03C0FC"/>
<path d="M20.1876 383.81C18.973 383.81 17.0271 381.786 16.4525 381.028C16.4277 380.992 16.4146 380.949 16.4146 380.904C16.4146 380.86 16.4277 380.817 16.4525 380.78C16.4735 380.744 16.5041 380.714 16.5408 380.693C16.5776 380.672 16.6192 380.662 16.6614 380.663C16.8051 380.663 20.0048 380.95 20.8798 382.086C20.9749 382.206 21.0429 382.346 21.079 382.494C21.1151 382.643 21.1184 382.798 21.0887 382.948C21.0774 383.143 21.006 383.329 20.8843 383.481C20.7627 383.633 20.5968 383.743 20.4096 383.797L20.1876 383.81ZM17.1577 381.198C18.1111 382.295 19.6391 383.536 20.2921 383.379C20.2921 383.379 20.5533 383.314 20.6316 382.896C20.6488 382.809 20.646 382.719 20.6234 382.633C20.6008 382.547 20.5589 382.467 20.5011 382.4C19.5336 381.667 18.3695 381.24 17.1577 381.172V381.198Z" fill="#8DE4FF"/>
<path d="M17.3013 381.172C17.0668 381.196 16.8305 381.196 16.596 381.172C16.5548 381.169 16.5153 381.154 16.4828 381.128C16.4502 381.103 16.426 381.068 16.4132 381.028C16.3948 380.992 16.3853 380.952 16.3853 380.911C16.3853 380.87 16.3948 380.83 16.4132 380.793C16.5046 380.715 18.4244 378.717 19.8741 378.717C20.0476 378.713 20.2199 378.746 20.3797 378.813C20.5396 378.881 20.6833 378.982 20.8014 379.109C20.9314 379.217 21.0204 379.367 21.0536 379.534C21.0868 379.7 21.0624 379.872 20.9842 380.023C20.6055 380.754 18.6073 381.172 17.3013 381.172ZM17.1315 380.715C18.4375 380.715 20.3312 380.31 20.6446 379.736C20.6446 379.736 20.7361 379.566 20.5271 379.357C20.4511 379.274 20.3579 379.209 20.2542 379.166C20.1504 379.123 20.0385 379.104 19.9263 379.109C18.8557 379.354 17.8827 379.914 17.1315 380.715Z" fill="#8DE4FF"/>
<path d="M106.37 413.456C105.381 413.45 104.393 413.358 103.419 413.182C103.371 413.173 103.327 413.147 103.296 413.109C103.265 413.07 103.248 413.023 103.249 412.973C103.242 412.928 103.248 412.882 103.266 412.84C103.285 412.798 103.315 412.763 103.354 412.738C103.497 412.66 106.841 410.74 108.447 411.184C108.596 411.218 108.736 411.281 108.86 411.371C108.983 411.461 109.087 411.575 109.165 411.706C109.268 411.852 109.323 412.025 109.323 412.203C109.323 412.38 109.268 412.554 109.165 412.699C108.787 413.287 107.598 413.456 106.37 413.456ZM104.163 412.843C105.939 413.104 108.369 413.091 108.813 412.464C108.878 412.386 108.93 412.242 108.813 411.968C108.713 411.805 108.554 411.688 108.369 411.641C107.35 411.38 105.326 412.242 104.163 412.843Z" fill="#8DE4FF"/>
<path d="M103.471 413.195C103.428 413.208 103.383 413.208 103.34 413.195C103.304 413.172 103.276 413.138 103.259 413.099C103.243 413.059 103.239 413.015 103.249 412.973C103.337 411.614 103.859 410.318 104.738 409.277C104.915 409.124 105.124 409.011 105.349 408.945C105.575 408.88 105.811 408.864 106.044 408.899C106.67 408.899 106.853 409.277 106.892 409.525C107.062 410.609 104.777 412.686 103.614 413.208L103.471 413.195ZM105.809 409.277C105.521 409.275 105.243 409.377 105.025 409.565C104.286 410.389 103.829 411.428 103.719 412.529C104.894 411.811 106.462 410.191 106.331 409.538C106.331 409.538 106.331 409.316 105.887 409.277H105.809Z" fill="#8DE4FF"/>
<path d="M92.9185 412.96H102.518L103.471 390.745H93.8719L92.9185 412.96Z" fill="#E1B9B2"/>
<path d="M7.44092 374.825L15.4598 380.075L33.1691 365.121L25.1372 359.858L7.44092 374.825Z" fill="#E1B9B2"/>
<path d="M16.7787 379.579L8.44644 372.748C8.29923 372.627 8.11459 372.561 7.92404 372.561C7.73349 372.561 7.54885 372.627 7.40164 372.748L0.532077 378.142C0.366115 378.274 0.232087 378.442 0.139964 378.633C0.0478416 378.824 0 379.034 0 379.246C0 379.458 0.0478416 379.667 0.139964 379.858C0.232087 380.049 0.366115 380.217 0.532077 380.349C3.48364 382.687 5.03778 383.68 8.70764 386.683C10.967 388.525 16.5436 394.167 19.6911 396.714C22.8386 399.26 25.7248 396.518 24.68 395.199C19.9915 389.256 18.15 384.176 17.6146 381.028C17.522 380.46 17.2248 379.944 16.7787 379.579Z" fill="#263238"/>
<path d="M102.452 411.85H92.0041C91.8136 411.851 91.6288 411.916 91.4796 412.034C91.3303 412.153 91.2253 412.318 91.1813 412.503L89.2876 421.031C89.24 421.238 89.2401 421.453 89.2878 421.659C89.3355 421.866 89.4296 422.059 89.563 422.224C89.6964 422.389 89.8656 422.521 90.0577 422.611C90.2499 422.701 90.4599 422.746 90.672 422.742C94.4463 422.677 99.9054 422.455 104.659 422.455C110.21 422.455 115.016 422.755 121.52 422.755C125.438 422.755 126.561 418.772 124.902 418.419C117.406 416.774 111.268 416.604 104.79 412.595C104.095 412.134 103.285 411.877 102.452 411.85Z" fill="#263238"/>
<path d="M45.3408 116.511C37.0215 120.429 32.2808 146.68 32.2808 146.68L52.6152 154.79C55.5917 147.522 57.9976 140.034 59.8112 132.392C62.6061 120.299 53.8559 112.463 45.3408 116.511Z" fill="#263238"/>
<path d="M56.1287 131.308C51.1006 136.402 48.802 146.379 47.7964 152.87L52.6678 154.816C55.5596 147.755 57.917 140.486 59.7202 133.071C59.2892 130.303 58.2183 129.193 56.1287 131.308Z" fill="#203048"/>
<path d="M100.82 116.328C100.82 116.328 111.033 127.873 101.395 199.259H50.0819C49.7293 191.423 54.679 152.962 47.0781 115.845C52.7489 114.746 58.4859 114.021 64.252 113.677C71.5157 113.246 78.7986 113.246 86.0622 113.677C91.0426 114.178 95.9766 115.065 100.82 116.328Z" fill="#263238"/>
<path d="M105.509 144.042L96.8628 129.14C95.1939 136.093 94.5124 143.246 94.8385 150.389C95.0736 155.508 99.7622 174.472 103.981 177.24C105.1 166.211 105.61 155.128 105.509 144.042Z" fill="#203048"/>
<path d="M106.71 126.528C108.016 132.875 109.322 139.379 110.719 145.753C112.117 152.126 113.566 158.525 115.251 164.703C115.682 166.231 116.087 167.798 116.557 169.261L116.91 170.384L117.079 170.945V170.88C116.988 170.762 116.884 170.749 116.962 170.88C117.499 171.466 118.185 171.895 118.947 172.121C120.182 172.58 121.453 172.934 122.747 173.179C128.922 174.157 135.174 174.564 141.423 174.393L142.664 181.498C140.914 182.059 139.281 182.464 137.557 182.869C135.834 183.274 134.136 183.614 132.399 183.875C128.805 184.473 125.161 184.718 121.52 184.606C119.496 184.552 117.483 184.289 115.512 183.822C113.007 183.274 110.653 182.182 108.617 180.623C107.287 179.549 106.189 178.216 105.391 176.705C105.182 176.313 104.999 175.869 104.829 175.49L104.594 174.876L104.111 173.57C103.445 171.912 102.896 170.279 102.295 168.647C100.088 162.117 98.2469 155.521 96.6274 148.939C95.008 142.357 93.6106 135.788 92.4482 129.036L106.71 126.528Z" fill="#E1B9B2"/>
<path d="M88.0081 123.329C85.3047 132.092 96.262 158.225 96.262 158.225L118.085 152.74C118.085 152.74 117.249 139.157 112.274 128.383C104.777 112.136 91.247 112.815 88.0081 123.329Z" fill="#263238"/>
<path d="M141.241 174.393L152.107 174.119L146.883 185.429C146.883 185.429 142.455 186.017 138.825 180.048L134.998 175.477L139.399 174.602C140.005 174.475 140.622 174.405 141.241 174.393Z" fill="#E1B9B2"/>
<path d="M158.963 176.222L152.746 185.599L146.882 185.429L152.106 174.119L158.963 176.222Z" fill="#E1B9B2"/>
<path d="M103.471 390.745L102.975 402.199H93.3755L93.8718 390.745H103.471Z" fill="#CE6F64"/>
<path d="M25.1372 359.858L33.1691 365.121L24.0271 372.827L16.0083 367.577L25.1372 359.858Z" fill="#CE6F64"/>
<path d="M67.0207 81.6149C67.5953 91.1095 67.4517 96.7123 72.2447 101.584C79.4538 108.936 91.1947 104.587 93.4672 95.0537C95.5176 86.5124 94.2377 72.4076 84.939 68.6202C82.8872 67.7921 80.6587 67.4988 78.4625 67.7678C76.2664 68.0369 74.1746 68.8595 72.3834 70.1585C70.5923 71.4575 69.1605 73.1902 68.2225 75.1941C67.2844 77.198 66.8709 79.4074 67.0207 81.6149Z" fill="#E1B9B2"/>
<path d="M55.8414 79.9432C58.2053 88.602 63.7688 98.5798 70.9649 99.2198C79.8979 100.003 83.9335 90.77 85.1089 81.2362C90.4635 77.5663 87.6556 73.5308 93.0232 73.0214C99.9189 72.3684 97.7118 59.7525 88.6351 57.7282C88.6351 57.7282 91.678 63.4093 85.2917 60.5361C79.2182 57.6497 72.4707 56.4799 65.7801 57.1535C65.7801 57.1535 73.9295 61.2283 65.9629 63.0436C57.9963 64.8589 55.6194 69.7695 59.2892 72.7341C59.2892 72.7472 54.2873 74.2491 55.8414 79.9432Z" fill="#263238"/>
<path d="M79.6627 83.1952C79.8382 85.5553 80.7886 87.7913 82.3661 89.5554C84.4557 91.867 86.6368 90.4304 87.0024 87.6225C87.342 85.1019 86.6498 80.8574 84.0901 79.5776C81.5303 78.2977 79.4929 80.3481 79.6627 83.1952Z" fill="#E1B9B2"/>
<path d="M83.1888 199.259C83.1888 199.259 92.5398 266.975 85.1739 294.114C73.4983 337.082 28.8592 373.349 28.8592 373.349L13.7227 363.424C13.7227 363.424 51.7403 332.798 56.3897 296.818C60.5689 264.52 50.0817 225.458 50.0817 199.246L83.1888 199.259Z" fill="#8DE4FF"/>
<path opacity="0.1" d="M83.1888 199.259C83.1888 199.259 92.5398 266.975 85.1739 294.114C73.4983 337.082 28.8592 373.349 28.8592 373.349L13.7227 363.424C13.7227 363.424 51.7403 332.798 56.3897 296.818C60.5689 264.52 50.0817 225.458 50.0817 199.246L83.1888 199.259Z" fill="#03C0FC"/>
<path d="M87.0543 237.969C84.565 235.117 81.8244 232.495 78.8657 230.133C80.459 252.113 81.765 284.672 80.3154 307.801C82.2645 303.367 83.8882 298.797 85.1737 294.127C88.7652 280.871 88.3865 257.977 87.0543 237.969Z" fill="#8DE4FF"/>
<path opacity="0.3" d="M87.0543 237.969C84.565 235.117 81.8244 232.495 78.8657 230.133C80.459 252.113 81.765 284.672 80.3154 307.801C82.2645 303.367 83.8882 298.797 85.1737 294.127C88.7652 280.871 88.3865 257.977 87.0543 237.969Z" fill="#03C0FC"/>
<path d="M34.9584 369.967C35.0237 369.967 29.0945 373.885 29.0945 373.885L12.5605 363.045L17.7845 358.722L34.9584 369.967Z" fill="#8DE4FF"/>
<path opacity="0.3" d="M34.9584 369.967C35.0237 369.967 29.0945 373.885 29.0945 373.885L12.5605 363.045L17.7845 358.722L34.9584 369.967Z" fill="#03C0FC"/>
<path d="M101.395 199.259C101.395 199.259 115.839 260.511 116.858 289.778C118.007 322.585 106.553 399.979 106.553 399.979H90.2936C90.2936 399.979 88.2954 321.984 87.5771 292.103C86.7805 259.518 67.6606 199.259 67.6606 199.259H101.395Z" fill="#8DE4FF"/>
<path opacity="0.1" d="M101.395 199.259C101.395 199.259 115.839 260.511 116.858 289.778C118.007 322.585 106.553 399.979 106.553 399.979H90.2936C90.2936 399.979 88.2954 321.984 87.5771 292.103C86.7805 259.518 67.6606 199.259 67.6606 199.259H101.395Z" fill="#03C0FC"/>
<path d="M109.675 393.514C109.753 393.514 108.76 400.253 108.76 400.253H88.9876L88.4521 394.232L109.675 393.514Z" fill="#8DE4FF"/>
<path opacity="0.3" d="M109.675 393.514C109.753 393.514 108.76 400.253 108.76 400.253H88.9876L88.4521 394.232L109.675 393.514Z" fill="#03C0FC"/>
<path d="M349.485 140.398C350.595 141.443 351.47 142.331 352.384 143.323C353.298 144.316 354.16 145.282 354.996 146.288C356.694 148.286 358.287 150.389 359.828 152.505C362.906 156.749 365.644 161.229 368.017 165.904L368.5 166.858C368.736 167.319 368.932 167.8 369.088 168.294C369.403 169.25 369.596 170.242 369.662 171.246C369.747 173.016 369.504 174.788 368.944 176.47C367.99 179.264 366.573 181.877 364.752 184.201C361.47 188.416 357.599 192.137 353.259 195.25L350.007 191.515C351.535 189.726 353.128 187.806 354.552 185.886C356 184.026 357.31 182.062 358.47 180.009C359.553 178.218 360.355 176.271 360.847 174.236C361.016 173.509 361.047 172.756 360.938 172.016C360.891 171.768 360.812 171.526 360.703 171.298C360.654 171.198 360.597 171.102 360.533 171.011L360.115 170.305C357.597 166.198 354.863 162.227 351.927 158.408C350.477 156.488 348.923 154.646 347.356 152.831C346.585 151.917 345.789 151.029 344.992 150.141C344.195 149.253 343.333 148.365 342.641 147.672L349.485 140.398Z" fill="#E1B9B2"/>
<path d="M351.261 190.418L341.505 188.824L346.611 197.366C346.611 197.366 352.893 197.144 354.682 193.448L351.261 190.418Z" fill="#E1B9B2"/>
<path d="M334.295 192.769L338.945 199.703L346.611 197.366L341.505 188.824L334.295 192.769Z" fill="#E1B9B2"/>
<path d="M350.791 413.339C350.127 413.396 349.465 413.215 348.923 412.83C348.759 412.675 348.639 412.481 348.572 412.266C348.506 412.05 348.496 411.822 348.544 411.602C348.554 411.462 348.601 411.327 348.682 411.212C348.762 411.097 348.873 411.006 349.001 410.949C350.138 410.44 353.115 412.346 353.455 412.568C353.494 412.592 353.523 412.628 353.54 412.671C353.556 412.713 353.559 412.76 353.546 412.803C353.541 412.848 353.522 412.89 353.492 412.923C353.461 412.956 353.421 412.978 353.376 412.986C352.531 413.201 351.663 413.319 350.791 413.339ZM349.485 411.315C349.389 411.3 349.292 411.3 349.197 411.315C349.14 411.341 349.091 411.384 349.056 411.437C349.022 411.49 349.003 411.552 349.001 411.615C348.967 411.761 348.97 411.913 349.011 412.057C349.053 412.201 349.13 412.332 349.236 412.438C349.733 412.882 351.013 412.947 352.723 412.608C351.743 411.96 350.641 411.52 349.485 411.315Z" fill="#8DE4FF"/>
<path d="M353.402 412.973H353.285C352.358 412.438 350.568 410.361 350.79 409.225C350.833 409.046 350.932 408.886 351.073 408.768C351.214 408.65 351.39 408.581 351.574 408.572C351.75 408.547 351.93 408.562 352.1 408.616C352.27 408.67 352.425 408.762 352.553 408.885C353.624 409.826 353.637 412.647 353.637 412.803C353.635 412.843 353.623 412.882 353.603 412.916C353.582 412.95 353.554 412.979 353.52 412.999L353.402 412.973ZM351.731 409.055H351.626C351.339 409.055 351.274 409.212 351.247 409.33C351.117 409.996 352.227 411.589 353.154 412.333C353.177 411.238 352.862 410.162 352.253 409.251C352.175 409.178 352.082 409.123 351.981 409.089C351.879 409.055 351.772 409.044 351.665 409.055H351.731Z" fill="#8DE4FF"/>
<path d="M306.282 413.339C305.448 413.418 304.613 413.206 303.918 412.738C303.762 412.599 303.641 412.425 303.566 412.229C303.491 412.034 303.464 411.823 303.487 411.615C303.496 411.488 303.536 411.365 303.605 411.258C303.673 411.151 303.767 411.062 303.879 411.001C305.094 410.322 308.985 412.307 309.43 412.555C309.47 412.582 309.503 412.619 309.524 412.663C309.544 412.707 309.552 412.755 309.547 412.803C309.54 412.849 309.518 412.891 309.485 412.924C309.452 412.957 309.41 412.979 309.364 412.986C308.35 413.202 307.318 413.32 306.282 413.339ZM304.545 411.315C304.396 411.305 304.247 411.336 304.114 411.406C304.067 411.428 304.028 411.463 304 411.507C303.972 411.551 303.957 411.602 303.957 411.654C303.937 411.79 303.951 411.929 303.996 412.059C304.042 412.188 304.118 412.305 304.219 412.399C304.819 412.934 306.426 413.025 308.594 412.66C307.33 411.986 305.961 411.532 304.545 411.315Z" fill="#8DE4FF"/>
<path d="M309.325 412.973H309.22C308.058 412.451 305.746 410.361 305.929 409.225C305.929 408.964 306.164 408.637 306.804 408.572C307.038 408.547 307.274 408.57 307.499 408.639C307.724 408.709 307.932 408.824 308.11 408.977C309.338 409.996 309.573 412.634 309.573 412.751C309.578 412.791 309.572 412.832 309.556 412.868C309.54 412.905 309.514 412.937 309.482 412.96C309.432 412.981 309.377 412.986 309.325 412.973ZM306.987 409.055H306.843C306.425 409.055 306.399 409.264 306.386 409.316C306.282 409.983 307.849 411.641 308.998 412.359C308.885 411.243 308.429 410.189 307.692 409.343C307.494 409.174 307.247 409.073 306.987 409.055Z" fill="#8DE4FF"/>
<path d="M324.762 110.373C324.383 116.276 323.364 128.265 327.896 131.582C327.896 131.582 327.073 137.629 316.377 139.04C304.623 140.568 309.991 133.933 309.991 133.933C316.22 131.556 315.424 126.816 313.726 122.48L324.762 110.373Z" fill="#E1B9B2"/>
<path d="M300.431 99.9381C300.366 99.9383 300.302 99.9243 300.244 99.8972C300.185 99.8702 300.133 99.8306 300.091 99.7814C299.718 99.3384 299.246 98.9894 298.712 98.7625C298.179 98.5356 297.6 98.4373 297.022 98.4754C296.961 98.4865 296.898 98.4851 296.838 98.4712C296.777 98.4573 296.72 98.4313 296.67 98.3946C296.62 98.3579 296.578 98.3115 296.546 98.258C296.515 98.2045 296.495 98.1452 296.487 98.0836C296.472 97.9608 296.506 97.837 296.582 97.7393C296.658 97.6415 296.769 97.5775 296.892 97.5612C297.629 97.4989 298.371 97.616 299.053 97.9025C299.735 98.1891 300.338 98.6366 300.81 99.2067C300.866 99.2748 300.902 99.3575 300.914 99.4453C300.926 99.5331 300.912 99.6223 300.876 99.7029C300.839 99.7834 300.78 99.8518 300.706 99.9004C300.632 99.9489 300.546 99.9756 300.457 99.9773L300.431 99.9381Z" fill="#263238"/>
<path d="M298.393 105.724C297.93 107.597 297.214 109.398 296.265 111.078C296.701 111.313 297.183 111.449 297.677 111.476C298.172 111.503 298.666 111.421 299.125 111.235L298.393 105.724Z" fill="#DE5753"/>
<path d="M298.916 104.287C299.02 105.071 298.694 105.75 298.184 105.828C297.675 105.907 297.166 105.306 297.074 104.522C296.983 103.739 297.296 103.059 297.806 102.994C298.315 102.929 298.824 103.451 298.916 104.287Z" fill="#263238"/>
<path d="M298.041 103.007L296.095 102.707C296.095 102.707 297.244 104.052 298.041 103.007Z" fill="#263238"/>
<path d="M320.086 412.764H310.291L309.638 390.105H319.433L320.086 412.764Z" fill="#E1B9B2"/>
<path d="M364.556 412.764H354.761L351.613 390.105H361.408L364.556 412.764Z" fill="#E1B9B2"/>
<path d="M354.16 411.667H365.156C365.344 411.666 365.525 411.732 365.667 411.855C365.809 411.977 365.901 412.148 365.927 412.333L367.233 421.044C367.257 421.264 367.234 421.486 367.166 421.696C367.098 421.907 366.986 422.1 366.838 422.264C366.69 422.428 366.509 422.559 366.307 422.648C366.105 422.737 365.886 422.783 365.665 422.781C361.839 422.716 359.984 422.494 355.152 422.494C352.174 422.494 347.826 422.794 343.725 422.794C339.624 422.794 339.402 418.733 341.113 418.367C348.779 416.721 349.993 414.449 352.566 412.268C353.015 411.895 353.576 411.684 354.16 411.667Z" fill="#263238"/>
<path d="M309.965 411.667H320.948C321.137 411.665 321.321 411.731 321.465 411.854C321.609 411.976 321.703 412.146 321.732 412.333L323.038 421.044C323.062 421.264 323.039 421.486 322.971 421.696C322.903 421.907 322.791 422.1 322.643 422.264C322.495 422.428 322.314 422.559 322.112 422.648C321.91 422.737 321.691 422.783 321.471 422.781C317.644 422.716 315.789 422.494 310.957 422.494C307.98 422.494 301.815 422.794 297.714 422.794C293.614 422.794 293.392 418.733 295.102 418.367C302.769 416.721 305.785 414.449 308.371 412.268C308.82 411.895 309.381 411.684 309.965 411.667Z" fill="#263238"/>
<path d="M309.638 390.105L309.978 401.794H319.773L319.433 390.105H309.638Z" fill="#CE6F64"/>
<path d="M361.408 390.105H351.613L353.246 401.794H363.028L361.408 390.105Z" fill="#CE6F64"/>
<path d="M324.892 98.1489C325.558 107.839 326.042 111.927 321.836 117.504C315.502 125.875 303.461 124.582 299.908 115.284C296.709 106.912 296.16 92.4809 305.067 87.4136C307.027 86.2906 309.24 85.6869 311.499 85.6597C313.757 85.6324 315.985 86.1826 317.971 87.258C319.956 88.3334 321.635 89.8983 322.846 91.8043C324.057 93.7104 324.762 95.8943 324.892 98.1489Z" fill="#E1B9B2"/>
<path d="M330.534 107.147C335.967 110.177 340.003 102.707 340.003 102.707C340.003 102.707 330.26 103.765 331.135 97.9661C332.284 90.2737 326.773 80.9227 312.955 82.1243C312.185 82.1896 311.453 82.281 310.735 82.3985C309.288 81.7129 307.653 81.5359 306.093 81.8962C304.533 82.2565 303.141 83.133 302.142 84.3836C298.224 84.7101 292.934 89.3856 296.526 95.563C296.778 94.8532 297.168 94.2006 297.675 93.6432C297.975 97.2608 301.136 103.007 305.08 103.386C305.929 108.336 302.638 114.069 303.774 119.241C305.459 126.698 318.036 128.383 318.036 128.383C317.602 127.452 317.44 126.417 317.57 125.397C317.699 124.378 318.114 123.417 318.767 122.623C327.308 126.541 332.937 122.715 332.937 122.715C327.112 120.547 328.875 116.681 328.875 116.681C330.887 117.574 333.166 117.652 335.233 116.9C337.301 116.147 338.997 114.622 339.963 112.645C338.029 112.737 336.109 112.267 334.435 111.291C332.762 110.316 331.407 108.876 330.534 107.147Z" fill="#263238"/>
<path d="M308.489 104.875C308.512 105.805 308.351 106.73 308.015 107.598C307.678 108.465 307.174 109.257 306.53 109.929C304.806 111.718 302.691 110.464 302.116 108.179C301.607 106.115 301.894 102.707 304.14 101.767C304.635 101.572 305.17 101.505 305.697 101.57C306.224 101.635 306.726 101.831 307.159 102.14C307.591 102.449 307.939 102.861 308.171 103.338C308.404 103.816 308.513 104.344 308.489 104.875Z" fill="#E1B9B2"/>
<path d="M316.625 195.159C316.625 195.159 319.107 259.623 325.01 297.471C329.764 328.057 350.882 399.521 350.882 399.521H364.229C364.229 399.521 353.22 330.499 350.804 300.265C344.691 223.747 360.559 207.317 345.58 191.384L316.625 195.159Z" fill="#263238"/>
<path d="M327.779 215.545C327.779 215.545 321.745 214.5 318.219 225.993C319.525 247.764 321.758 276.653 325.01 297.471C325.728 302.107 326.825 307.697 328.17 313.822C325.624 277.045 327.779 215.545 327.779 215.545Z" fill="#161F33"/>
<path d="M306.216 196.517C306.216 196.517 295.22 267.837 295.86 297.68C296.526 328.723 307.901 399.548 307.901 399.548H321.131C321.131 399.548 319.041 330.565 320.204 300.083C321.51 266.845 335.079 192.769 335.079 192.769L306.216 196.517Z" fill="#263238"/>
<path d="M366.162 400.148H348.414L347.029 394.193L366.032 394.324L366.162 400.148Z" fill="#8DE4FF"/>
<path opacity="0.2" d="M366.162 400.148H348.414L347.029 394.193L366.032 394.324L366.162 400.148Z" fill="#03C0FC"/>
<path d="M344.913 131.596C350.02 132.092 357.777 146.601 357.777 146.601L344.887 156.488C344.887 156.488 334.217 147.124 335.484 141.861C336.803 136.389 340.016 131.138 344.913 131.596Z" fill="#8DE4FF"/>
<path opacity="0.1" d="M344.913 131.596C350.02 132.092 357.777 146.601 357.777 146.601L344.887 156.488C344.887 156.488 334.217 147.124 335.484 141.861C336.803 136.389 340.016 131.138 344.913 131.596Z" fill="#03C0FC"/>
<path d="M341.061 137.838C339.759 137.487 338.411 137.338 337.064 137.394C336.379 138.822 335.849 140.319 335.484 141.861C334.178 147.085 344.887 156.488 344.887 156.488L345.841 155.757L341.061 137.838Z" fill="#8DE4FF"/>
<path opacity="0.3" d="M341.061 137.838C339.759 137.487 338.411 137.338 337.064 137.394C336.379 138.822 335.849 140.319 335.484 141.861C334.178 147.085 344.887 156.488 344.887 156.488L345.841 155.757L341.061 137.838Z" fill="#03C0FC"/>
<path d="M301.841 151.773C298.119 161.19 294.201 170.763 291.08 180.205C290.871 180.806 290.701 181.38 290.518 181.968L290.074 183.418C289.953 183.845 289.953 184.297 290.074 184.724C290.812 186.356 291.981 187.756 293.457 188.772C297.362 191.574 301.616 193.853 306.112 195.55L304.937 200.356C299.406 199.627 294.057 197.883 289.16 195.211C286.146 193.601 283.692 191.114 282.121 188.08C281.219 186.141 280.905 183.979 281.22 181.863C281.249 181.604 281.293 181.347 281.35 181.093L281.481 180.544L281.703 179.552C281.86 178.886 282.016 178.246 282.186 177.593C283.492 172.369 285.164 167.406 286.927 162.482C288.69 157.559 290.532 152.701 292.608 147.855L301.841 151.773Z" fill="#E1B9B2"/>
<path d="M293.914 138.557C293.914 138.557 289.5 140.79 306.216 196.517L345.632 191.371C342.863 175.412 341.557 165.525 344.913 131.596C339.261 131.191 333.587 131.191 327.935 131.596C321.918 131.945 315.934 132.731 310.03 133.946C302.468 135.631 293.914 138.557 293.914 138.557Z" fill="#8DE4FF"/>
<path opacity="0.1" d="M293.914 138.557C293.914 138.557 289.5 140.79 306.216 196.517L345.632 191.371C342.863 175.412 341.557 165.525 344.913 131.596C339.261 131.191 333.587 131.191 327.935 131.596C321.918 131.945 315.934 132.731 310.03 133.946C302.468 135.631 293.914 138.557 293.914 138.557Z" fill="#03C0FC"/>
<path d="M345.919 188.981L348.178 192.259C348.348 192.52 348.061 192.834 347.617 192.899L306.282 198.306C305.929 198.306 305.603 198.215 305.55 197.993L304.741 194.506C304.675 194.27 304.963 194.022 305.355 193.97L345.266 188.746C345.386 188.727 345.508 188.738 345.623 188.78C345.737 188.821 345.839 188.89 345.919 188.981Z" fill="#8DE4FF"/>
<path opacity="0.2" d="M345.919 188.981L348.178 192.259C348.348 192.52 348.061 192.834 347.617 192.899L306.282 198.306C305.929 198.306 305.603 198.215 305.55 197.993L304.741 194.506C304.675 194.27 304.963 194.022 305.355 193.97L345.266 188.746C345.386 188.727 345.508 188.738 345.623 188.78C345.737 188.821 345.839 188.89 345.919 188.981Z" fill="#03C0FC"/>
<path d="M341.139 194.14L342.21 193.996C342.419 193.996 342.562 193.839 342.536 193.709L341.439 189.19C341.398 189.113 341.331 189.053 341.25 189.019C341.169 188.986 341.079 188.982 340.995 189.007L339.924 189.138C339.702 189.138 339.559 189.295 339.598 189.438L340.695 193.944C340.721 194.088 340.93 194.166 341.139 194.14Z" fill="#263238"/>
<path d="M315.228 197.483L316.299 197.34C316.508 197.34 316.664 197.183 316.625 197.052L315.528 192.534C315.485 192.457 315.419 192.397 315.339 192.362C315.259 192.326 315.169 192.318 315.084 192.338L314.013 192.481C313.804 192.481 313.648 192.638 313.687 192.769L314.784 197.287C314.81 197.483 315.019 197.562 315.228 197.483Z" fill="#263238"/>
<path d="M295.755 157.467C296.839 162.509 298.367 168.895 300.601 176.979L301.084 156.488L295.755 157.467Z" fill="#8DE4FF"/>
<path opacity="0.3" d="M295.755 157.467C296.839 162.509 298.367 168.895 300.601 176.979L301.084 156.488L295.755 157.467Z" fill="#03C0FC"/>
<path d="M293.914 138.557C289.016 140.529 284.772 157.285 284.772 157.285L301.619 165.486C301.619 165.486 309.756 144.995 306.112 140.999C302.468 137.002 299.556 136.297 293.914 138.557Z" fill="#8DE4FF"/>
<path opacity="0.1" d="M293.914 138.557C289.016 140.529 284.772 157.285 284.772 157.285L301.619 165.486C301.619 165.486 309.756 144.995 306.112 140.999C302.468 137.002 299.556 136.297 293.914 138.557Z" fill="#03C0FC"/>
<path d="M323.39 400.148H305.642L304.257 394.193L324.017 394.324L323.39 400.148Z" fill="#8DE4FF"/>
<path opacity="0.2" d="M323.39 400.148H305.642L304.257 394.193L324.017 394.324L323.39 400.148Z" fill="#03C0FC"/>
<path d="M306.386 193.931L304.963 193.343C304.613 193.201 304.231 193.154 303.857 193.206C303.483 193.259 303.13 193.41 302.833 193.643C302.536 193.877 302.306 194.184 302.166 194.535C302.026 194.886 301.982 195.268 302.037 195.642L303.069 202.446C303.119 202.787 303.243 203.112 303.434 203.398C303.624 203.685 303.876 203.926 304.171 204.103C304.466 204.281 304.797 204.39 305.139 204.424C305.481 204.459 305.827 204.416 306.151 204.301C306.669 204.112 307.154 203.844 307.588 203.504C308.06 203.112 308.434 202.615 308.679 202.052C308.924 201.49 309.033 200.878 308.998 200.265L308.855 197.444C308.83 196.682 308.583 195.943 308.145 195.319C307.706 194.695 307.095 194.213 306.386 193.931Z" fill="#E1B9B2"/>
</svg>
