<svg width="205" height="65" viewBox="0 0 205 65" fill="none" xmlns="http://www.w3.org/2000/svg">
<path d="M73.642 44.408C71.7607 44.408 69.936 44.1587 68.168 43.66C66.4227 43.1387 65.0173 42.47 63.952 41.654L65.822 37.506C66.842 38.254 68.0547 38.8547 69.46 39.308C70.8653 39.7613 72.2707 39.988 73.676 39.988C75.24 39.988 76.396 39.7613 77.144 39.308C77.892 38.832 78.266 38.2087 78.266 37.438C78.266 36.8713 78.0393 36.4067 77.586 36.044C77.1553 35.6587 76.5887 35.3527 75.886 35.126C75.206 34.8993 74.2767 34.65 73.098 34.378C71.2847 33.9473 69.8 33.5167 68.644 33.086C67.488 32.6553 66.4907 31.964 65.652 31.012C64.836 30.06 64.428 28.7907 64.428 27.204C64.428 25.8213 64.802 24.5747 65.55 23.464C66.298 22.3307 67.42 21.4353 68.916 20.778C70.4347 20.1207 72.282 19.792 74.458 19.792C75.9767 19.792 77.4613 19.9733 78.912 20.336C80.3627 20.6987 81.632 21.22 82.72 21.9L81.02 26.082C78.8213 24.8353 76.6227 24.212 74.424 24.212C72.8827 24.212 71.738 24.4613 70.99 24.96C70.2647 25.4587 69.902 26.116 69.902 26.932C69.902 27.748 70.3213 28.36 71.16 28.768C72.0213 29.1533 73.3247 29.5387 75.07 29.924C76.8833 30.3547 78.368 30.7853 79.524 31.216C80.68 31.6467 81.666 32.3267 82.482 33.256C83.3207 34.1853 83.74 35.4433 83.74 37.03C83.74 38.39 83.3547 39.6367 82.584 40.77C81.836 41.8807 80.7027 42.7647 79.184 43.422C77.6653 44.0793 75.818 44.408 73.642 44.408ZM109.332 20.2V44H104.81L92.9436 29.55V44H87.5036V20.2H92.0596L103.892 34.65V20.2H109.332ZM142.068 31.624C143.428 32.0547 144.493 32.78 145.264 33.8C146.034 34.7973 146.42 36.0327 146.42 37.506C146.42 39.5913 145.604 41.2007 143.972 42.334C142.362 43.4447 140.005 44 136.9 44H124.592V20.2H136.22C139.121 20.2 141.342 20.7553 142.884 21.866C144.448 22.9767 145.23 24.484 145.23 26.388C145.23 27.544 144.946 28.5753 144.38 29.482C143.836 30.3887 143.065 31.1027 142.068 31.624ZM130.066 24.348V29.958H135.54C136.9 29.958 137.931 29.72 138.634 29.244C139.336 28.768 139.688 28.0653 139.688 27.136C139.688 26.2067 139.336 25.5153 138.634 25.062C137.931 24.586 136.9 24.348 135.54 24.348H130.066ZM136.492 39.852C137.942 39.852 139.03 39.614 139.756 39.138C140.504 38.662 140.878 37.9253 140.878 36.928C140.878 34.956 139.416 33.97 136.492 33.97H130.066V39.852H136.492ZM150.216 18.772H155.52V44H150.216V18.772ZM169.146 44.272C167.219 44.272 165.485 43.8753 163.944 43.082C162.425 42.266 161.235 41.144 160.374 39.716C159.513 38.288 159.082 36.6673 159.082 34.854C159.082 33.0407 159.513 31.42 160.374 29.992C161.235 28.564 162.425 27.4533 163.944 26.66C165.485 25.844 167.219 25.436 169.146 25.436C171.073 25.436 172.795 25.844 174.314 26.66C175.833 27.4533 177.023 28.564 177.884 29.992C178.745 31.42 179.176 33.0407 179.176 34.854C179.176 36.6673 178.745 38.288 177.884 39.716C177.023 41.144 175.833 42.266 174.314 43.082C172.795 43.8753 171.073 44.272 169.146 44.272ZM169.146 39.92C170.506 39.92 171.617 39.4667 172.478 38.56C173.362 37.6307 173.804 36.3953 173.804 34.854C173.804 33.3127 173.362 32.0887 172.478 31.182C171.617 30.2527 170.506 29.788 169.146 29.788C167.786 29.788 166.664 30.2527 165.78 31.182C164.896 32.0887 164.454 33.3127 164.454 34.854C164.454 36.3953 164.896 37.6307 165.78 38.56C166.664 39.4667 167.786 39.92 169.146 39.92ZM201.591 25.708V40.94C201.591 44.2947 200.719 46.788 198.973 48.42C197.228 50.052 194.678 50.868 191.323 50.868C189.555 50.868 187.878 50.6527 186.291 50.222C184.705 49.7913 183.39 49.168 182.347 48.352L184.455 44.544C185.226 45.1787 186.201 45.6773 187.379 46.04C188.558 46.4253 189.737 46.618 190.915 46.618C192.751 46.618 194.1 46.1987 194.961 45.36C195.845 44.544 196.287 43.2973 196.287 41.62V40.838C194.905 42.3567 192.978 43.116 190.507 43.116C188.83 43.116 187.289 42.7533 185.883 42.028C184.501 41.28 183.401 40.2373 182.585 38.9C181.769 37.5627 181.361 36.0213 181.361 34.276C181.361 32.5307 181.769 30.9893 182.585 29.652C183.401 28.3147 184.501 27.2833 185.883 26.558C187.289 25.81 188.83 25.436 190.507 25.436C193.159 25.436 195.177 26.3087 196.559 28.054V25.708H201.591ZM191.561 38.764C192.967 38.764 194.111 38.356 194.995 37.54C195.902 36.7013 196.355 35.6133 196.355 34.276C196.355 32.9387 195.902 31.862 194.995 31.046C194.111 30.2073 192.967 29.788 191.561 29.788C190.156 29.788 189 30.2073 188.093 31.046C187.187 31.862 186.733 32.9387 186.733 34.276C186.733 35.6133 187.187 36.7013 188.093 37.54C189 38.356 190.156 38.764 191.561 38.764Z" fill="url(#paint0_linear)"/>
<path d="M56.2927 32.5C56.2927 18.969 45.482 8 32.1463 8C18.8107 8 8 18.969 8 32.5C8 46.031 18.8107 57 32.1463 57C45.482 57 56.2927 46.031 56.2927 32.5Z" fill="#00C1FF"/>
<g filter="url(#filter0_d)">
<path d="M51.8211 32.5C51.8211 21.4748 43.0124 12.537 32.1463 12.537C21.2803 12.537 12.4716 21.4748 12.4716 32.5C12.4716 43.5253 21.2803 52.463 32.1463 52.463C43.0124 52.463 51.8211 43.5253 51.8211 32.5Z" fill="white"/>
</g>
<path d="M33.642 44.408C31.7607 44.408 29.936 44.1587 28.168 43.66C26.4227 43.1387 25.0173 42.47 23.952 41.654L25.822 37.506C26.842 38.254 28.0547 38.8547 29.46 39.308C30.8653 39.7613 32.2707 39.988 33.676 39.988C35.24 39.988 36.396 39.7613 37.144 39.308C37.892 38.832 38.266 38.2087 38.266 37.438C38.266 36.8713 38.0393 36.4067 37.586 36.044C37.1553 35.6587 36.5887 35.3527 35.886 35.126C35.206 34.8993 34.2767 34.65 33.098 34.378C31.2847 33.9473 29.8 33.5167 28.644 33.086C27.488 32.6553 26.4907 31.964 25.652 31.012C24.836 30.06 24.428 28.7907 24.428 27.204C24.428 25.8213 24.802 24.5747 25.55 23.464C26.298 22.3307 27.42 21.4353 28.916 20.778C30.4347 20.1207 32.282 19.792 34.458 19.792C35.9767 19.792 37.4613 19.9733 38.912 20.336C40.3627 20.6987 41.632 21.22 42.72 21.9L41.02 26.082C38.8213 24.8353 36.6227 24.212 34.424 24.212C32.8827 24.212 31.738 24.4613 30.99 24.96C30.2647 25.4587 29.902 26.116 29.902 26.932C29.902 27.748 30.3213 28.36 31.16 28.768C32.0213 29.1533 33.3247 29.5387 35.07 29.924C36.8833 30.3547 38.368 30.7853 39.524 31.216C40.68 31.6467 41.666 32.3267 42.482 33.256C43.3207 34.1853 43.74 35.4433 43.74 37.03C43.74 38.39 43.3547 39.6367 42.584 40.77C41.836 41.8807 40.7027 42.7647 39.184 43.422C37.6653 44.0793 35.818 44.408 33.642 44.408Z" fill="#00B2EC"/>
<defs>
<filter id="filter0_d" x="0.471558" y="0.537048" width="63.3496" height="63.9259" filterUnits="userSpaceOnUse" color-interpolation-filters="sRGB">
<feFlood flood-opacity="0" result="BackgroundImageFix"/>
<feColorMatrix in="SourceAlpha" type="matrix" values="0 0 0 0 0 0 0 0 0 0 0 0 0 0 0 0 0 0 127 0" result="hardAlpha"/>
<feOffset/>
<feGaussianBlur stdDeviation="6"/>
<feComposite in2="hardAlpha" operator="out"/>
<feColorMatrix type="matrix" values="0 0 0 0 0 0 0 0 0 0.27125 0 0 0 0 0.3875 0 0 0 0.4 0"/>
<feBlend mode="normal" in2="BackgroundImageFix" result="effect1_dropShadow"/>
<feBlend mode="normal" in="SourceGraphic" in2="effect1_dropShadow" result="shape"/>
</filter>
<linearGradient id="paint0_linear" x1="199.158" y1="31" x2="58.0105" y2="36.2519" gradientUnits="userSpaceOnUse">
<stop stop-color="#27A7D0"/>
<stop offset="1" stop-color="#00C1FF"/>
</linearGradient>
</defs>
</svg>
